<svg xmlns="http://www.w3.org/2000/svg" viewBox="0 0 165.38 43.34"><defs><style>.cls-1{fill:#ff0025;}.cls-2{fill:#10b223;}.cls-3{fill:#cf6fe2;}.cls-4{fill:#8713a3;}.cls-5,.cls-6,.cls-7{stroke:#000;stroke-miterlimit:10;}.cls-5,.cls-6{stroke-width:0.75px;}.cls-6,.cls-7{fill:none;}.cls-8{font-size:23px;font-family:GillSans, Gill Sans;}</style></defs><title>embodiedcycles-small-colordots</title><g id="Layer_2" data-name="Layer 2"><circle class="cls-1" cx="1.99" cy="33.22" r="1.76"/><circle class="cls-1" cx="24.3" cy="33.22" r="1.76"/><circle class="cls-1" cx="18.63" cy="33.22" r="1.76"/><circle class="cls-1" cx="12.95" cy="33.22" r="1.76"/><circle class="cls-1" cx="7.47" cy="33.22" r="1.76"/><circle class="cls-2" cx="29.97" cy="33.22" r="1.76"/><circle class="cls-3" cx="53.65" cy="33.22" r="1.76"/><circle class="cls-3" cx="60.3" cy="33.22" r="1.76"/><circle class="cls-4" cx="66.56" cy="33.22" r="1.76"/><circle class="cls-4" cx="72.63" cy="33.22" r="1.76"/><circle class="cls-4" cx="78.5" cy="33.22" r="1.76"/><circle class="cls-3" cx="84.76" cy="33.22" r="1.76"/><circle class="cls-2" cx="47.78" cy="33.22" r="1.76"/><circle class="cls-2" cx="41.91" cy="33.22" r="1.76"/><circle class="cls-2" cx="35.84" cy="33.22" r="1.76"/><circle class="cls-2" cx="161.92" cy="33.22" r="1.76"/><circle class="cls-2" cx="156.37" cy="33.22" r="1.76"/><circle class="cls-2" cx="150.5" cy="33.22" r="1.76"/><circle class="cls-2" cx="144.63" cy="33.22" r="1.76"/><circle class="cls-2" cx="138.57" cy="33.22" r="1.76"/><circle class="cls-2" cx="132.7" cy="33.22" r="1.76"/><circle class="cls-2" cx="127.22" cy="33.22" r="1.76"/><circle class="cls-2" cx="120.96" cy="33.22" r="1.76"/><circle class="cls-2" cx="114.7" cy="33.22" r="1.76"/><circle class="cls-2" cx="109.02" cy="33.22" r="1.76"/><circle class="cls-2" cx="102.96" cy="33.22" r="1.76"/><circle class="cls-2" cx="96.89" cy="33.22" r="1.76"/><circle class="cls-2" cx="90.83" cy="33.22" r="1.76"/><line class="cls-5" x1="7.18" y1="39.28" x2="1.41" y2="42.61"/><line class="cls-6" x1="12.17" y1="42.41" x2="7.18" y2="39.28"/><line class="cls-6" x1="18.63" y1="39.28" x2="12.17" y2="42.41"/><line class="cls-6" x1="24.3" y1="42.02" x2="18.63" y2="39.28"/><line class="cls-6" x1="29.97" y1="38.3" x2="24.3" y2="42.02"/><line class="cls-6" x1="35.84" y1="40.85" x2="29.97" y2="38.3"/><line class="cls-6" x1="41.91" y1="37.72" x2="35.84" y2="40.85"/><line class="cls-6" x1="47.78" y1="42.41" x2="41.91" y2="37.72"/><line class="cls-6" x1="53.65" y1="39.28" x2="47.78" y2="42.41"/><line class="cls-6" x1="60.3" y1="39.28" x2="53.65" y2="39.28"/><line class="cls-6" x1="66.56" y1="37.33" x2="60.3" y2="39.28"/><line class="cls-6" x1="72.63" y1="40.65" x2="66.56" y2="37.33"/><line class="cls-6" x1="78.5" y1="40.85" x2="72.63" y2="40.65"/><line class="cls-6" x1="84.76" y1="23.83" x2="78.5" y2="40.85"/><line class="cls-6" x1="90.24" y1="28.72" x2="84.76" y2="23.83"/><line class="cls-6" x1="96.89" y1="26.14" x2="90.24" y2="28.72"/><line class="cls-6" x1="102.96" y1="28.91" x2="96.89" y2="26.14"/><line class="cls-6" x1="109.02" y1="26.14" x2="102.96" y2="28.91"/><line class="cls-6" x1="114.7" y1="27.53" x2="109.02" y2="26.14"/><line class="cls-6" x1="120.96" y1="27.43" x2="114.7" y2="27.53"/><line class="cls-6" x1="127.22" y1="24.61" x2="120.96" y2="27.43"/><line class="cls-6" x1="132.7" y1="27.53" x2="127.22" y2="24.61"/><line class="cls-6" x1="138.57" y1="26.02" x2="132.7" y2="27.53"/><line class="cls-6" x1="144.63" y1="28.72" x2="138.57" y2="26.02"/><line class="cls-6" x1="150.5" y1="24.41" x2="144.63" y2="28.72"/><line class="cls-6" x1="156.37" y1="27.53" x2="150.5" y2="24.41"/><line class="cls-6" x1="161.92" y1="25" x2="156.37" y2="27.53"/><line class="cls-7" x1="150.5" y1="24.41" x2="150.5" y2="24.41"/><line class="cls-7" x1="144.63" y1="28.72" x2="144.63" y2="28.72"/><circle cx="1.41" cy="42.61" r="0.73"/><circle cx="7.18" cy="39.28" r="0.73"/><circle cx="12.17" cy="42.41" r="0.73"/><circle cx="18.63" cy="39.28" r="0.73"/><circle cx="24.3" cy="42.02" r="0.73"/><circle cx="29.97" cy="38.3" r="0.73"/><circle cx="35.84" cy="40.85" r="0.73"/><circle cx="41.91" cy="37.72" r="0.73"/><circle cx="47.78" cy="42.41" r="0.73"/><circle cx="53.65" cy="39.28" r="0.73"/><circle cx="60.3" cy="39.28" r="0.73"/><circle cx="66.56" cy="37.33" r="0.73"/><circle cx="72.63" cy="40.65" r="0.73"/><circle cx="78.5" cy="40.85" r="0.73"/><circle cx="84.76" cy="23.83" r="0.73"/><circle cx="90.24" cy="28.72" r="0.73"/><circle cx="96.89" cy="26.14" r="0.73"/><circle cx="102.96" cy="28.91" r="0.73"/><circle cx="109.02" cy="26.14" r="0.73"/><circle cx="114.7" cy="27.53" r="0.73"/><circle cx="120.96" cy="27.43" r="0.73"/><circle cx="127.22" cy="24.61" r="0.73"/><circle cx="132.7" cy="27.53" r="0.73"/><circle cx="138.57" cy="26.02" r="0.73"/><circle cx="144.63" cy="28.72" r="0.73"/><circle cx="150.5" cy="24.41" r="0.73"/><circle cx="156.37" cy="27.53" r="0.73"/><circle cx="161.92" cy="25" r="0.73"/></g><g id="Layer_3" data-name="Layer 3"><text class="cls-8" transform="translate(0 19.4)">Embodied Cycles</text></g></svg>