<svg xmlns="http://www.w3.org/2000/svg" viewBox="0 0 283.65 106.29"><defs><style>.cls-1{fill:none;}.cls-1,.cls-6{stroke:#000;stroke-miterlimit:10;}.cls-2{fill:#ff0025;}.cls-3{fill:#10b223;}.cls-4{fill:#cf6fe2;}.cls-5{fill:#8713a3;}.cls-7{font-size:38px;font-family:Georgia, Georgia;}</style></defs><title>embodiedcycles-colordots-circle-georgia-2lines</title><g id="Layer_2" data-name="Layer 2"><line class="cls-1" x1="83.22" y1="0.5" x2="83.22" y2="0.5"/><circle class="cls-2" cx="50.28" cy="18.22" r="3"/><circle class="cls-2" cx="80.31" cy="33.55" r="3"/><circle class="cls-2" cx="75.15" cy="26.72" r="3"/><circle class="cls-2" cx="67.82" cy="22.64" r="3"/><circle class="cls-2" cx="58.82" cy="19.64" r="3"/><circle class="cls-3" cx="85.32" cy="41.12" r="3"/><circle class="cls-4" cx="84.65" cy="74.39" r="3"/><circle class="cls-4" cx="80.31" cy="81.48" r="3"/><circle class="cls-5" cx="74.31" cy="86.55" r="3"/><circle class="cls-5" cx="67.82" cy="90.48" r="3"/><circle class="cls-5" cx="60.65" cy="93.48" r="3"/><circle class="cls-4" cx="51.99" cy="94.88" r="3"/><circle class="cls-3" cx="87.65" cy="66.05" r="3"/><circle class="cls-3" cx="88.39" cy="57.88" r="3"/><circle class="cls-3" cx="87.39" cy="49.14" r="3"/><circle class="cls-3" cx="40.82" cy="18.88" r="3"/><circle class="cls-3" cx="32.82" cy="22.64" r="3"/><circle class="cls-3" cx="26.49" cy="27.88" r="3"/><circle class="cls-3" cx="20.49" cy="34.55" r="3"/><circle class="cls-3" cx="15.84" cy="41.75" r="3"/><circle class="cls-3" cx="13.65" cy="50.38" r="3"/><circle class="cls-3" cx="12.84" cy="58.72" r="3"/><circle class="cls-3" cx="17.49" cy="75.29" r="3"/><circle class="cls-3" cx="13.65" cy="67.05" r="3"/><circle class="cls-3" cx="22.75" cy="82.22" r="3"/><circle class="cls-3" cx="28.75" cy="87.48" r="3"/><circle class="cls-3" cx="35.82" cy="91.88" r="3"/><circle class="cls-3" cx="43.82" cy="94.55" r="3"/><line class="cls-6" x1="36.58" y1="8.14" x2="50.28" y2="30.88"/><line class="cls-1" x1="57.06" y1="26.72" x2="50.28" y2="30.88"/><line class="cls-1" x1="57.06" y1="26.72" x2="63.06" y2="31.55"/><line class="cls-1" x1="70.07" y1="32.79" x2="63.06" y2="31.55"/><line class="cls-1" x1="70.07" y1="32.79" x2="71.31" y2="40.71"/><line class="cls-1" x1="78.15" y1="44.75" x2="71.31" y2="40.71"/><line class="cls-1" x1="75.15" y1="51.62" x2="78.15" y2="44.75"/><line class="cls-1" x1="75.15" y1="56.72" x2="75.15" y2="51.62"/><line class="cls-1" x1="75.15" y1="56.72" x2="80.64" y2="64.29"/><line class="cls-1" x1="80.64" y1="64.29" x2="73.91" y2="68.21"/><line class="cls-1" x1="73.91" y1="68.21" x2="75.15" y2="76.5"/><line class="cls-1" x1="75.15" y1="76.5" x2="67.82" y2="77.39"/><line class="cls-1" x1="67.82" y1="77.39" x2="65.43" y2="83.55"/><line class="cls-1" x1="57.06" y1="79.22" x2="65.43" y2="83.55"/><line class="cls-1" x1="51.99" y1="105.05" x2="57.06" y2="79.22"/><line class="cls-1" x1="51.99" y1="105.05" x2="42.06" y2="101.13"/><line class="cls-1" x1="29.82" y1="102.37" x2="42.06" y2="101.13"/><line class="cls-1" x1="25.75" y1="91.88" x2="29.82" y2="102.37"/><line class="cls-1" x1="25.75" y1="91.88" x2="13.65" y2="88.88"/><line class="cls-1" x1="13.65" y1="88.88" x2="12.41" y2="78.29"/><line class="cls-1" x1="12.41" y1="78.29" x2="1.24" y2="70.22"/><line class="cls-1" x1="1.24" y1="70.22" x2="2.48" y2="59.2"/><line class="cls-1" x1="7.15" y1="49.48" x2="2.48" y2="59.2"/><line class="cls-1" x1="7.15" y1="49.48" x2="3.72" y2="38.75"/><line class="cls-1" x1="15.84" y1="30.55" x2="3.72" y2="38.75"/><line class="cls-1" x1="15.84" y1="30.55" x2="20.49" y2="21.22"/><line class="cls-1" x1="28.58" y1="16.64" x2="20.49" y2="21.22"/><line class="cls-1" x1="79.22" y1="0.83" x2="79.22" y2="0.83"/><circle cx="50.28" cy="30.88" r="1.24"/><circle cx="57.06" cy="26.72" r="1.24"/><circle cx="63.06" cy="31.55" r="1.24"/><circle cx="70.07" cy="32.79" r="1.24"/><circle cx="71.31" cy="40.71" r="1.24"/><circle cx="78.15" cy="44.75" r="1.24"/><circle cx="36.58" cy="8.14" r="1.24"/><circle cx="75.15" cy="51.62" r="1.24"/><circle cx="75.15" cy="56.72" r="1.24"/><circle cx="80.64" cy="64.29" r="1.24"/><circle cx="73.91" cy="68.21" r="1.24"/><circle cx="75.15" cy="76.5" r="1.24"/><circle cx="67.82" cy="77.39" r="1.24"/><circle cx="65.43" cy="83.55" r="1.24"/><circle cx="57.06" cy="79.22" r="1.24"/><circle cx="51.99" cy="105.05" r="1.24"/><circle cx="42.06" cy="101.13" r="1.24"/><circle cx="29.82" cy="102.37" r="1.24"/><circle cx="25.75" cy="91.88" r="1.24"/><circle cx="13.65" cy="88.88" r="1.24"/><circle cx="12.41" cy="78.29" r="1.24"/><circle cx="15.84" cy="30.55" r="1.24"/><circle cx="1.24" cy="70.22" r="1.24"/><circle cx="2.48" cy="59.2" r="1.24"/><circle cx="7.15" cy="49.48" r="1.24"/><circle cx="20.49" cy="21.22" r="1.24"/><circle cx="3.72" cy="38.75" r="1.24"/><circle cx="28.58" cy="16.64" r="1.24"/><line class="cls-1" x1="36.58" y1="8.14" x2="28.58" y2="16.64"/></g><g id="Layer_3" data-name="Layer 3"><text class="cls-7" transform="translate(103.97 44.9)">Embodied<tspan x="0" y="45.6">Cycles</tspan></text></g></svg>