<svg id="Layer_1" data-name="Layer 1" xmlns="http://www.w3.org/2000/svg" viewBox="0 0 283.57 73.82"><defs><style>.cls-1{fill:#ff0025;}.cls-2{fill:#10b223;}.cls-3{fill:#cf6fe2;}.cls-4{fill:#8713a3;}.cls-5{fill:none;stroke:#000;stroke-miterlimit:10;}.cls-6,.cls-7,.cls-8{isolation:isolate;}.cls-7,.cls-8{font-size:38px;font-family:Kefa-Regular, Kefa;}.cls-8{letter-spacing:-0.04em;}</style></defs><title>logo</title><g id="Layer_2" data-name="Layer 2"><circle class="cls-1" cx="7.59" cy="56.58" r="3"/><circle class="cls-1" cx="45.59" cy="56.58" r="3"/><circle class="cls-1" cx="35.92" cy="56.58" r="3"/><circle class="cls-1" cx="26.25" cy="56.58" r="3"/><circle class="cls-1" cx="16.92" cy="56.58" r="3"/><circle class="cls-2" cx="55.25" cy="56.58" r="3"/><circle class="cls-3" cx="95.59" cy="56.58" r="3"/><circle class="cls-3" cx="106.92" cy="56.58" r="3"/><circle class="cls-4" cx="117.59" cy="56.58" r="3"/><circle class="cls-4" cx="127.92" cy="56.58" r="3"/><circle class="cls-4" cx="137.92" cy="56.58" r="3"/><circle class="cls-3" cx="148.59" cy="56.58" r="3"/><circle class="cls-2" cx="85.59" cy="56.58" r="3"/><circle class="cls-2" cx="75.59" cy="56.58" r="3"/><circle class="cls-2" cx="65.25" cy="56.58" r="3"/><circle class="cls-2" cx="280.03" cy="56.58" r="3"/><circle class="cls-2" cx="270.59" cy="56.58" r="3"/><circle class="cls-2" cx="260.59" cy="56.58" r="3"/><circle class="cls-2" cx="250.59" cy="56.58" r="3"/><circle class="cls-2" cx="240.25" cy="56.58" r="3"/><circle class="cls-2" cx="230.25" cy="56.58" r="3"/><circle class="cls-2" cx="220.92" cy="56.58" r="3"/><circle class="cls-2" cx="210.25" cy="56.58" r="3"/><circle class="cls-2" cx="199.59" cy="56.58" r="3"/><circle class="cls-2" cx="189.92" cy="56.58" r="3"/><circle class="cls-2" cx="179.59" cy="56.58" r="3"/><circle class="cls-2" cx="169.25" cy="56.58" r="3"/><circle class="cls-2" cx="158.92" cy="56.58" r="3"/><line class="cls-5" x1="16.42" y1="66.92" x2="6.59" y2="72.58"/><line class="cls-5" x1="24.92" y1="72.25" x2="16.42" y2="66.92"/><line class="cls-5" x1="35.92" y1="66.92" x2="24.92" y2="72.25"/><line class="cls-5" x1="45.59" y1="71.58" x2="35.92" y2="66.92"/><line class="cls-5" x1="55.25" y1="65.25" x2="45.59" y2="71.58"/><line class="cls-5" x1="65.25" y1="69.58" x2="55.25" y2="65.25"/><line class="cls-5" x1="75.59" y1="64.25" x2="65.25" y2="69.58"/><line class="cls-5" x1="85.59" y1="72.25" x2="75.59" y2="64.25"/><line class="cls-5" x1="95.59" y1="66.92" x2="85.59" y2="72.25"/><line class="cls-5" x1="106.92" y1="66.92" x2="95.59" y2="66.92"/><line class="cls-5" x1="117.59" y1="63.58" x2="106.92" y2="66.92"/><line class="cls-5" x1="127.92" y1="69.25" x2="117.59" y2="63.58"/><line class="cls-5" x1="137.92" y1="69.58" x2="127.92" y2="69.25"/><line class="cls-5" x1="148.59" y1="40.58" x2="137.92" y2="69.58"/><line class="cls-5" x1="157.92" y1="48.92" x2="148.59" y2="40.58"/><line class="cls-5" x1="169.25" y1="44.53" x2="157.92" y2="48.92"/><line class="cls-5" x1="179.59" y1="49.25" x2="169.25" y2="44.53"/><line class="cls-5" x1="189.92" y1="44.53" x2="179.59" y2="49.25"/><line class="cls-5" x1="199.59" y1="46.89" x2="189.92" y2="44.53"/><line class="cls-5" x1="210.25" y1="46.72" x2="199.59" y2="46.89"/><line class="cls-5" x1="220.92" y1="41.92" x2="210.25" y2="46.72"/><line class="cls-5" x1="230.25" y1="46.89" x2="220.92" y2="41.92"/><line class="cls-5" x1="240.25" y1="44.32" x2="230.25" y2="46.89"/><line class="cls-5" x1="250.59" y1="48.92" x2="240.25" y2="44.32"/><line class="cls-5" x1="260.59" y1="41.58" x2="250.59" y2="48.92"/><line class="cls-5" x1="270.59" y1="46.89" x2="260.59" y2="41.58"/><line class="cls-5" x1="280.03" y1="42.58" x2="270.59" y2="46.89"/><circle cx="6.59" cy="72.58" r="1.24"/><circle cx="16.42" cy="66.92" r="1.24"/><circle cx="24.92" cy="72.25" r="1.24"/><circle cx="35.92" cy="66.92" r="1.24"/><circle cx="45.59" cy="71.58" r="1.24"/><circle cx="55.25" cy="65.25" r="1.24"/><circle cx="65.25" cy="69.58" r="1.24"/><circle cx="75.59" cy="64.25" r="1.24"/><circle cx="85.59" cy="72.25" r="1.24"/><circle cx="95.59" cy="66.92" r="1.24"/><circle cx="106.92" cy="66.92" r="1.24"/><circle cx="117.59" cy="63.58" r="1.24"/><circle cx="127.92" cy="69.25" r="1.24"/><circle cx="137.92" cy="69.58" r="1.24"/><circle cx="148.59" cy="40.58" r="1.24"/><circle cx="157.92" cy="48.92" r="1.24"/><circle cx="169.25" cy="44.53" r="1.24"/><circle cx="179.59" cy="49.25" r="1.24"/><circle cx="189.92" cy="44.53" r="1.24"/><circle cx="199.59" cy="46.89" r="1.24"/><circle cx="210.25" cy="46.72" r="1.24"/><circle cx="220.92" cy="41.92" r="1.24"/><circle cx="230.25" cy="46.89" r="1.24"/><circle cx="240.25" cy="44.32" r="1.24"/><circle cx="250.59" cy="48.92" r="1.24"/><circle cx="260.59" cy="41.58" r="1.24"/><circle cx="270.59" cy="46.89" r="1.24"/><circle cx="280.03" cy="42.58" r="1.24"/></g><g id="Layer_3" data-name="Layer 3"><g class="cls-6"><text class="cls-7" transform="translate(0 31.66)">Embodied </text><text class="cls-8" transform="translate(177.98 31.66)">C</text><text class="cls-7" transform="translate(198.98 31.66)">ycles</text></g></g></svg>